<svg xmlns="http://www.w3.org/2000/svg" viewBox="0 0 743 472">
  <path fill="#F43F5E" d="M0 0h95v184h161V1h94c.556 35.795 1.016 71.587 1.277 107.385a30453.587 30453.587 0 0 0 .116 15.401c.094 11.907.248 23.812.45 35.718 2.44 143.66 2.44 143.66-21.907 196.326-6.195 13.427-10.481 27.43-14.856 41.533-2.597 8.355-5.367 16.652-8.142 24.95l-.785 2.348C300.87 440.476 295.444 456.24 290 472h-34V272H95l.035 43.496.014 27.193c.006 14.405.013 28.81.026 43.214.01 10.488.017 20.977.02 31.465 0 5.558.003 11.115.01 16.672.007 5.225.01 10.449.008 15.673 0 1.923.002 3.847.006 5.77.005 2.614.004 5.228.001 7.842l.01 2.337c-.016 5.224-.016 5.224-1.13 6.338H0V0Zm470 0h112l12 36c2.919 8.441 2.919 8.441 5.887 16.864 1.354 3.805 2.695 7.613 4.039 11.421l.805 2.278c5.421 15.35 10.682 30.757 15.917 46.171l4.04 11.891 1.038 3.057a4941.686 4941.686 0 0 0 15.563 45.05c5.378 15.348 10.623 30.739 15.836 46.143 5.54 16.366 11.138 32.706 16.898 48.996 5.166 14.614 10.22 29.265 15.28 43.915 4.508 13.05 9.046 26.088 13.697 39.089 3.85 10.769 7.512 21.59 11.096 32.45 3.312 9.995 6.774 19.933 10.279 29.863a32222.029 32222.029 0 0 1 7.496 21.287 3675.33 3675.33 0 0 1 5.134 14.702c.534 1.536 1.07 3.07 1.61 4.605a1186.66 1186.66 0 0 1 2.217 6.374l1.273 3.65C743 467 743 467 743 472H643c-5.626-16.88-11.208-33.698-16.426-50.695-2.963-9.617-6.009-19.207-9.056-28.797l-1.899-5.985c-.89-2.81-1.784-5.62-2.678-8.43l-.81-2.559-.762-2.388-.658-2.07c-.818-2.39-1.773-4.73-2.711-7.076H447c-16.09 51.44-16.09 51.44-32.01 102.933C414 470 414 470 413 472h-98c.74-5.174 1.676-9.628 3.3-14.512l.704-2.16c.764-2.34 1.536-4.678 2.308-7.015l1.632-4.984c4.087-12.477 8.245-24.93 12.413-37.38 3.945-11.796 7.804-23.619 11.643-35.449a4740.592 4740.592 0 0 1 13.864-42.083A3358.114 3358.114 0 0 0 372 294.5a4318.084 4318.084 0 0 1 14.072-42.756c2.901-8.67 5.796-17.342 8.686-26.016a54994.54 54994.54 0 0 1 12.471-37.39c2.126-6.364 4.25-12.729 6.373-19.093l4.61-13.808c7.429-22.23 14.791-44.479 22.021-66.774a4259.772 4259.772 0 0 1 8.481-25.923C455.666 41.777 462.851 20.898 470 0Zm56 101c-2.731 7.018-5.014 14.153-7.281 21.332l-1.242 3.914c-1.1 3.47-2.198 6.94-3.296 10.412a33798.236 33798.236 0 0 0-10.061 31.797l-2.844 8.994a8334.81 8334.81 0 0 0-13.83 44.227l-.614 1.977c-2.048 6.604-4.096 13.21-6.14 19.815l-2.848 9.196-1.04 3.367-.986 3.178-.923 2.991c-1.063 3.327-2.24 6.606-3.472 9.874-.504 2.294-.049 3.692.577 5.926 14.308.047 28.615.082 42.923.104 6.643.01 13.286.024 19.93.047 6.405.022 12.811.034 19.217.039 2.45.003 4.898.01 7.347.021 3.42.015 6.839.017 10.258.016l3.095.022 2.813-.008 2.453.005c2.198-.071 2.198-.071 3.964-2.246l-.848-2.527c-12.034-35.913-23.84-71.9-35.264-108.011a2427.078 2427.078 0 0 0-14.07-43.024c-2.396-7.111-4.74-14.226-6.818-21.438h-1Z"/>
</svg>
